<?xml version="1.0" encoding="UTF-8" standalone="no"?>
<!-- Created with Inkscape (http://www.inkscape.org/) -->

<svg
   xmlns:dc="http://purl.org/dc/elements/1.1/"
   xmlns:cc="http://creativecommons.org/ns#"
   xmlns:rdf="http://www.w3.org/1999/02/22-rdf-syntax-ns#"
   xmlns:svg="http://www.w3.org/2000/svg"
   xmlns="http://www.w3.org/2000/svg"
   xmlns:sodipodi="http://sodipodi.sourceforge.net/DTD/sodipodi-0.dtd"
   xmlns:inkscape="http://www.inkscape.org/namespaces/inkscape"
   id="svg9919"
   version="1.1"
   inkscape:version="0.48.3.1 r9886"
   width="200"
   height="200"
   sodipodi:docname="Music-commontime.svg">
  <metadata
     id="metadata9925">
    <rdf:RDF>
      <cc:Work
         rdf:about="">
        <dc:format>image/svg+xml</dc:format>
        <dc:type
           rdf:resource="http://purl.org/dc/dcmitype/StillImage" />
        <dc:title />
      </cc:Work>
    </rdf:RDF>
  </metadata>
  <defs
     id="defs9923" />
  <sodipodi:namedview
     pagecolor="#ffffff"
     bordercolor="#666666"
     borderopacity="1"
     objecttolerance="10"
     gridtolerance="10"
     guidetolerance="10"
     inkscape:pageopacity="0"
     inkscape:pageshadow="2"
     inkscape:window-width="1125"
     inkscape:window-height="1122"
     id="namedview9921"
     showgrid="false"
     inkscape:zoom="4"
     inkscape:cx="116.69495"
     inkscape:cy="149.40417"
     inkscape:window-x="139"
     inkscape:window-y="26"
     inkscape:window-maximized="0"
     inkscape:current-layer="svg9919" />
  <g
     id="g8557"
     transform="translate(266.88506,23.034045)">
    <path
       sodipodi:nodetypes="cc"
       inkscape:connector-curvature="0"
       id="path7839"
       d="m -266.87933,28.966962 199.996095,-0.0026"
       style="fill:none;stroke:#000000;stroke-width:4;stroke-linecap:butt;stroke-linejoin:miter;stroke-miterlimit:4;stroke-opacity:0.25098039;stroke-dasharray:none" />
    <path
       sodipodi:nodetypes="cc"
       inkscape:connector-curvature="0"
       id="path7839-9"
       d="m -266.87697,52.963096 199.998845,0.0012"
       style="fill:none;stroke:#000000;stroke-width:4;stroke-linecap:butt;stroke-linejoin:miter;stroke-miterlimit:4;stroke-opacity:0.25098039;stroke-dasharray:none" />
    <path
       sodipodi:nodetypes="cc"
       inkscape:connector-curvature="0"
       id="path7839-7"
       d="m -266.88409,76.960849 200.013785,0.0031"
       style="fill:none;stroke:#000000;stroke-width:4;stroke-linecap:butt;stroke-linejoin:miter;stroke-miterlimit:4;stroke-opacity:0.25098039;stroke-dasharray:none" />
    <path
       sodipodi:nodetypes="cc"
       inkscape:connector-curvature="0"
       id="path7839-0"
       d="m -266.87694,100.96108 199.998045,1.9e-4"
       style="fill:none;stroke:#000000;stroke-width:4;stroke-linecap:butt;stroke-linejoin:miter;stroke-miterlimit:4;stroke-opacity:0.25098039;stroke-dasharray:none" />
    <path
       sodipodi:nodetypes="cc"
       inkscape:connector-curvature="0"
       id="path7839-0-3"
       d="m -266.8803,124.96244 200.001935,-0.004"
       style="fill:none;stroke:#000000;stroke-width:4;stroke-linecap:butt;stroke-linejoin:miter;stroke-miterlimit:4;stroke-opacity:0.25098039;stroke-dasharray:none" />
  </g>
  <path
     style="fill:#000000;fill-opacity:1;stroke:none"
     d="m 118.53516,90.433597 c 10e-4,-5.484911 -5.19961,-14.341937 -19.101568,-14.34375 -10.291613,0.0039 -20.476563,12.402194 -20.480469,23.222655 0.0474,13.816478 7.781365,25.780718 21.035156,25.781248 14.875531,-0.005 18.685881,-12.36107 18.678541,-18.53799 -0.52892,-5.3e-4 -1.22645,0.005 -1.66149,0.009 -0.84074,5.17056 -5.83683,15.52893 -14.39595,15.52947 -9.327421,-0.002 -11.65768,-8.30555 -11.656257,-21.71094 -2.42e-4,-16.879233 5.525245,-21.289898 12.171877,-21.292963 5.26313,0.008 8.14676,2.803835 8.55469,3.507812 0.24678,0.392165 0.2656,0.913243 -0.076,1.278411 -4.00209,-0.02945 -8.65023,2.758573 -8.65055,8.377839 -0.001,3.361243 2.37342,7.176953 7.51953,7.175781 3.90176,-0.0013 8.05103,-3.009418 8.0625,-8.996093 z"
     id="path3054"
     inkscape:connector-curvature="0"
     sodipodi:nodetypes="ccccccccccccccc" />
</svg>
