<?xml version="1.0" encoding="UTF-8" standalone="no"?>
<!-- Created with Inkscape (http://www.inkscape.org/) -->

<svg
   xmlns:dc="http://purl.org/dc/elements/1.1/"
   xmlns:cc="http://creativecommons.org/ns#"
   xmlns:rdf="http://www.w3.org/1999/02/22-rdf-syntax-ns#"
   xmlns:svg="http://www.w3.org/2000/svg"
   xmlns="http://www.w3.org/2000/svg"
   version="1.1"
   width="200"
   height="200"
   id="svg9919">
  <metadata
     id="metadata9925">
    <rdf:RDF>
      <cc:Work
         rdf:about="">
        <dc:format>image/svg+xml</dc:format>
        <dc:type
           rdf:resource="http://purl.org/dc/dcmitype/StillImage" />
        <dc:title></dc:title>
      </cc:Work>
    </rdf:RDF>
  </metadata>
  <defs
     id="defs9923" />
  <g
     transform="translate(266.88506,23.034045)"
     id="g8557">
    <path
       d="m -266.87933,28.966962 199.996095,-0.0026"
       id="path7839"
       style="fill:none;stroke:#000000;stroke-width:4;stroke-linecap:butt;stroke-linejoin:miter;stroke-miterlimit:4;stroke-opacity:0.25098039;stroke-dasharray:none" />
    <path
       d="m -266.87697,52.963096 199.998845,0.0012"
       id="path7839-9"
       style="fill:none;stroke:#000000;stroke-width:4;stroke-linecap:butt;stroke-linejoin:miter;stroke-miterlimit:4;stroke-opacity:0.25098039;stroke-dasharray:none" />
    <path
       d="m -266.88409,76.960849 200.013785,0.0031"
       id="path7839-7"
       style="fill:none;stroke:#000000;stroke-width:4;stroke-linecap:butt;stroke-linejoin:miter;stroke-miterlimit:4;stroke-opacity:0.25098039;stroke-dasharray:none" />
    <path
       d="m -266.87694,100.96108 199.998045,1.9e-4"
       id="path7839-0"
       style="fill:none;stroke:#000000;stroke-width:4;stroke-linecap:butt;stroke-linejoin:miter;stroke-miterlimit:4;stroke-opacity:0.25098039;stroke-dasharray:none" />
    <path
       d="m -266.8803,124.96244 200.001935,-0.004"
       id="path7839-0-3"
       style="fill:none;stroke:#000000;stroke-width:4;stroke-linecap:butt;stroke-linejoin:miter;stroke-miterlimit:4;stroke-opacity:0.25098039;stroke-dasharray:none" />
  </g>
  <path
     d="m 118.53516,90.433597 c 10e-4,-5.484911 -5.19961,-14.341937 -19.101568,-14.34375 -10.291613,0.0039 -20.476563,12.402194 -20.480469,23.222655 0.0474,13.816478 7.781365,25.780718 21.035156,25.781248 14.875531,-0.005 18.685881,-12.36107 18.678541,-18.53799 -0.52892,-5.3e-4 -1.22645,0.005 -1.66149,0.009 -0.84074,5.17056 -5.83683,15.52893 -14.39595,15.52947 -9.327421,-0.002 -11.65768,-8.30555 -11.656257,-21.71094 -2.42e-4,-16.879233 5.525245,-21.289898 12.171877,-21.292963 5.26313,0.008 8.14676,2.803835 8.55469,3.507812 0.24678,0.392165 0.2656,0.913243 -0.076,1.278411 -4.00209,-0.02945 -8.65023,2.758573 -8.65055,8.377839 -0.001,3.361243 2.37342,7.176953 7.51953,7.175781 3.90176,-0.0013 8.05103,-3.009418 8.0625,-8.996093 z"
     id="path3054"
     style="fill:#000000;fill-opacity:1;stroke:none" />
  <path
     d="m 98.022677,59.506722 2.032933,0 -0.0442,81.184698 -1.988743,0 z"
     id="path4546"
     style="fill:#000000;fill-opacity:1;stroke:none" />
</svg>
