<?xml version="1.0" encoding="UTF-8" standalone="no"?>
<svg xmlns:dc="http://purl.org/dc/elements/1.1/" xmlns:cc="http://creativecommons.org/ns#" xmlns:rdf="http://www.w3.org/1999/02/22-rdf-syntax-ns#" xmlns:svg="http://www.w3.org/2000/svg" xmlns="http://www.w3.org/2000/svg" xmlns:sodipodi="http://sodipodi.sourceforge.net/DTD/sodipodi-0.dtd" xmlns:inkscape="http://www.inkscape.org/namespaces/inkscape" version="1.0" width="440" height="70" id="svg2" sodipodi:version="0.32" inkscape:version="0.46" sodipodi:docname="Music notes.svg" inkscape:output_extension="org.inkscape.output.svg.inkscape">
  <metadata id="metadata984">
    <rdf:RDF>
      <cc:Work rdf:about="">
        <dc:format>image/svg+xml</dc:format>
        <dc:type rdf:resource="http://purl.org/dc/dcmitype/StillImage"/>
      </cc:Work>
    </rdf:RDF>
  </metadata>
  <sodipodi:namedview inkscape:window-height="1000" inkscape:window-width="1400" inkscape:pageshadow="2" inkscape:pageopacity="0.0" guidetolerance="10.0" gridtolerance="10.0" objecttolerance="10.0" borderopacity="1.0" bordercolor="#666666" pagecolor="#ffffff" id="base" showgrid="false" inkscape:zoom="1.7829667" inkscape:cx="218.18841" inkscape:cy="21.355015" inkscape:window-x="-8" inkscape:window-y="-8" inkscape:current-layer="svg2"/>
  <defs id="defs4"/>
  <path style="fill:#000000;fill-opacity:1;stroke:none;stroke-width:0.1757299;stroke-linecap:round;stroke-linejoin:round;stroke-opacity:1" d="M 10.07836,39.941388 C 10.073879,39.972339 10.073879,40.004042 10.07836,40.034994 C 10.053561,40.029401 10.02816,40.029401 10.003361,40.034994 C 9.9988803,40.065945 9.9988803,40.097648 10.003361,40.1286 C 9.9988803,40.159551 9.9988803,40.191254 10.003361,40.222205 C 9.9988803,40.253157 9.9988803,40.28486 10.003361,40.315811 C 10.021562,40.354478 10.047379,40.3867 10.07836,40.409417 C 10.103159,40.415009 10.12856,40.415009 10.153359,40.409417 C 10.178157,40.415009 10.203559,40.415009 10.228357,40.409417 L 429.77164,40.409417 C 429.79644,40.415009 429.82185,40.415009 429.84664,40.409417 C 429.87144,40.415009 429.89685,40.415009 429.92164,40.409417 C 429.95263,40.3867 429.97845,40.354478 429.99664,40.315811 C 430.00113,40.28486 430.00113,40.253157 429.99664,40.222205 C 430.00113,40.191254 430.00113,40.159551 429.99664,40.1286 C 430.00113,40.097648 430.00113,40.065945 429.99664,40.034994 C 429.97185,40.029401 429.94643,40.029401 429.92164,40.034994 C 429.92613,40.004042 429.92613,39.972339 429.92164,39.941388 C 429.89685,39.935796 429.87144,39.935796 429.84664,39.941388 C 429.82185,39.935796 429.79644,39.935796 429.77164,39.941388 L 10.228357,39.941388 C 10.203559,39.935796 10.178157,39.935796 10.153359,39.941388 C 10.12856,39.935796 10.103159,39.935796 10.07836,39.941388 z" id="line803"/>
  <path style="fill:#000000;fill-opacity:1;stroke:none;stroke-width:0.1757299;stroke-linecap:round;stroke-linejoin:round;stroke-opacity:1" d="M 10.07836,34.699466 C 10.047379,34.722183 10.021562,34.754404 10.003361,34.793072 C 9.9988803,34.824023 9.9988803,34.855726 10.003361,34.886678 C 9.9988803,34.917629 9.9988803,34.949332 10.003361,34.980283 C 9.9988803,35.011235 9.9988803,35.042938 10.003361,35.073889 C 10.02816,35.079481 10.053561,35.079481 10.07836,35.073889 C 10.073879,35.10484 10.073879,35.136543 10.07836,35.167495 C 10.103159,35.173087 10.12856,35.173087 10.153359,35.167495 C 10.178157,35.173087 10.203559,35.173087 10.228357,35.167495 L 429.77164,35.167495 C 429.79644,35.173087 429.82185,35.173087 429.84664,35.167495 C 429.87144,35.173087 429.89685,35.173087 429.92164,35.167495 C 429.92613,35.136543 429.92613,35.10484 429.92164,35.073889 C 429.94643,35.079481 429.97185,35.079481 429.99664,35.073889 C 430.00113,35.042938 430.00113,35.011235 429.99664,34.980283 C 430.00113,34.949332 430.00113,34.917629 429.99664,34.886678 C 430.00113,34.855726 430.00113,34.824023 429.99664,34.793072 C 429.97845,34.754404 429.95263,34.722183 429.92164,34.699466 C 429.89685,34.693874 429.87144,34.693874 429.84664,34.699466 C 429.82185,34.693874 429.79644,34.693874 429.77164,34.699466 L 10.228357,34.699466 C 10.203559,34.693874 10.178157,34.693874 10.153359,34.699466 C 10.12856,34.693874 10.103159,34.693874 10.07836,34.699466 L 10.07836,34.699466 z" id="line807"/>
  <path style="fill:#000000;fill-opacity:1;stroke:none;stroke-width:0.1757299;stroke-linecap:round;stroke-linejoin:round;stroke-opacity:1" d="M 10.153359,29.363938 C 10.122377,29.386655 10.096561,29.418877 10.07836,29.457544 C 10.047379,29.480261 10.021562,29.512482 10.003361,29.55115 C 9.9988803,29.582101 9.9988803,29.613804 10.003361,29.644756 C 9.9988803,29.675707 9.9988803,29.70741 10.003361,29.738361 C 10.021562,29.777029 10.047379,29.80925 10.07836,29.831967 C 10.096561,29.870634 10.122377,29.902856 10.153359,29.925573 C 10.178157,29.931165 10.203559,29.931165 10.228357,29.925573 L 429.77164,29.925573 C 429.79644,29.931165 429.82185,29.931165 429.84664,29.925573 C 429.87763,29.902856 429.90345,29.870634 429.92164,29.831967 C 429.95263,29.80925 429.97845,29.777029 429.99664,29.738361 C 430.00113,29.70741 430.00113,29.675707 429.99664,29.644756 C 430.00113,29.613804 430.00113,29.582101 429.99664,29.55115 C 429.97845,29.512482 429.95263,29.480261 429.92164,29.457544 C 429.90345,29.418877 429.87763,29.386655 429.84664,29.363938 C 429.82185,29.358346 429.79644,29.358346 429.77164,29.363938 L 10.228357,29.363938 C 10.203559,29.358346 10.178157,29.358346 10.153359,29.363938 L 10.153359,29.363938 z" id="line811"/>
  <path style="fill:#000000;fill-opacity:1;stroke:none;stroke-width:0.1757299;stroke-linecap:round;stroke-linejoin:round;stroke-opacity:1" d="M 10.07836,24.122016 C 10.073879,24.152968 10.073879,24.184671 10.07836,24.215622 C 10.047379,24.238339 10.021562,24.27056 10.003361,24.309228 C 9.9988803,24.340179 9.9988803,24.371882 10.003361,24.402834 C 9.9988803,24.433785 9.9988803,24.465488 10.003361,24.496439 C 10.021562,24.535107 10.047379,24.567328 10.07836,24.590045 C 10.096561,24.628712 10.122377,24.660934 10.153359,24.683651 C 10.178157,24.689243 10.203559,24.689243 10.228357,24.683651 L 429.77164,24.683651 C 429.79644,24.689243 429.82185,24.689243 429.84664,24.683651 C 429.87763,24.660934 429.90345,24.628712 429.92164,24.590045 C 429.95263,24.567328 429.97845,24.535107 429.99664,24.496439 C 430.00113,24.465488 430.00113,24.433785 429.99664,24.402834 C 430.00113,24.371882 430.00113,24.340179 429.99664,24.309228 C 430.00113,24.278276 430.00113,24.246573 429.99664,24.215622 C 429.97185,24.21003 429.94643,24.21003 429.92164,24.215622 C 429.90345,24.176955 429.87763,24.144733 429.84664,24.122016 C 429.82185,24.116424 429.79644,24.116424 429.77164,24.122016 L 10.228357,24.122016 C 10.203559,24.116424 10.178157,24.116424 10.153359,24.122016 C 10.12856,24.116424 10.103159,24.116424 10.07836,24.122016 z" id="line815"/>
  <path style="fill:#000000;fill-opacity:1;stroke:none;stroke-width:0.1757299;stroke-linecap:round;stroke-linejoin:round;stroke-opacity:1" d="M 10.07836,18.880094 C 10.073879,18.911046 10.073879,18.942749 10.07836,18.9737 C 10.053561,18.968108 10.02816,18.968108 10.003361,18.9737 C 9.9988803,19.004651 9.9988803,19.036354 10.003361,19.067306 C 9.9988803,19.098257 9.9988803,19.12996 10.003361,19.160912 C 9.9988803,19.191863 9.9988803,19.223566 10.003361,19.254517 C 10.021562,19.293185 10.047379,19.325406 10.07836,19.348123 C 10.103159,19.353715 10.12856,19.353715 10.153359,19.348123 C 10.178157,19.353715 10.203559,19.353715 10.228357,19.348123 L 429.77164,19.348123 C 429.79644,19.353715 429.82185,19.353715 429.84664,19.348123 C 429.87144,19.353715 429.89685,19.353715 429.92164,19.348123 C 429.95263,19.325406 429.97845,19.293185 429.99664,19.254517 C 430.00113,19.223566 430.00113,19.191863 429.99664,19.160912 C 430.00113,19.12996 430.00113,19.098257 429.99664,19.067306 C 430.00113,19.036354 430.00113,19.004651 429.99664,18.9737 C 429.97185,18.968108 429.94643,18.968108 429.92164,18.9737 C 429.92613,18.942749 429.92613,18.911046 429.92164,18.880094 C 429.89685,18.874502 429.87144,18.874502 429.84664,18.880094 C 429.82185,18.874502 429.79644,18.874502 429.77164,18.880094 L 10.228357,18.880094 C 10.203559,18.874502 10.178157,18.874502 10.153359,18.880094 C 10.12856,18.874502 10.103159,18.874502 10.07836,18.880094 L 10.07836,18.880094 z" id="line819"/>
  <path d="M 160.00422,13.862955 L 160.26741,13.862955 C 160.38405,13.862955 160.47796,13.95686 160.47796,14.073506 L 160.47796,31.087039 C 160.47796,31.203685 160.38405,31.29759 160.26741,31.29759 L 160.00422,31.29759 C 159.88757,31.29759 159.79367,31.203685 159.79367,31.087039 L 159.79367,14.073506 C 159.79367,13.95686 159.88757,13.862955 160.00422,13.862955 z" id="rect857"/>
  <text id="text861" fill="currentColor" style="font-size:11.98153591px;font-style:normal;font-variant:normal;font-weight:normal;font-stretch:normal;text-align:start;line-height:125%;writing-mode:lr-tb;text-anchor:start;font-family:Times New Roman;-inkscape-font-specification:Times New Roman" x="148.02776" y="63.868912" sodipodi:linespacing="125%">
    <tspan id="tspan863" style="font-size:11.98153591px;font-style:normal;font-variant:normal;font-weight:normal;font-stretch:normal;text-align:start;line-height:125%;writing-mode:lr-tb;text-anchor:start;font-family:Times New Roman;-inkscape-font-specification:Times New Roman">1/4</tspan>
  </text>
  <path style="font-size:7.02919579px;font-family:Emmentaler" d="M 157.31867,29.275359 C 156.55762,29.390723 155.86895,29.665313 155.25266,30.099128 C 154.63637,30.53295 154.17404,31.06546 153.86567,31.696668 C 153.75075,31.932219 153.67004,32.150664 153.62354,32.352002 C 153.57704,32.553336 153.5595,32.777047 153.5709,33.023123 C 153.57003,33.164368 153.57178,33.271396 153.57617,33.34421 C 153.58055,33.417025 153.59284,33.49247 153.61301,33.570551 C 153.75557,34.089902 154.03894,34.498718 154.4631,34.796996 C 154.88727,35.095273 155.41803,35.261957 156.05538,35.297051 C 156.98179,35.308014 157.84504,35.04395 158.64513,34.504862 C 159.44521,33.965768 159.99263,33.275344 160.28741,32.433587 C 160.33872,32.272169 160.37294,32.126539 160.39005,31.996701 C 160.40715,31.866863 160.41505,31.710705 160.41374,31.528229 C 160.4146,31.387425 160.41285,31.279519 160.40847,31.204509 C 160.40408,31.129501 160.3918,31.047916 160.37163,30.959747 C 160.31723,30.766745 160.23652,30.579007 160.1295,30.396528 C 160.02246,30.214055 159.89964,30.0579 159.76104,29.928059 C 159.42064,29.629785 158.98551,29.426254 158.45563,29.317468 C 158.30561,29.286765 158.11612,29.269218 157.88715,29.26483 C 157.65817,29.260448 157.46868,29.263955 157.31867,29.275359 L 157.31867,29.275359 z" id="text867"/>
  <path d="M 102.92442,13.862955 L 103.18761,13.862955 C 103.30425,13.862955 103.39816,13.95686 103.39816,14.073506 L 103.39816,30.699772 C 103.39816,30.816418 103.30425,30.910323 103.18761,30.910323 L 102.92442,30.910323 C 102.80777,30.910323 102.71386,30.816418 102.71386,30.699772 L 102.71386,14.073506 C 102.71386,13.95686 102.80777,13.862955 102.92442,13.862955 z" id="rect873"/>
  <text id="text877" fill="currentColor" style="font-size:11.98153591px;font-style:normal;font-variant:normal;font-weight:normal;font-stretch:normal;text-align:start;line-height:125%;writing-mode:lr-tb;text-anchor:start;font-family:Times New Roman;-inkscape-font-specification:Times New Roman" x="90.753716" y="63.868912" sodipodi:linespacing="125%">
    <tspan id="tspan879" style="font-size:11.98153591px;font-style:normal;font-variant:normal;font-weight:normal;font-stretch:normal;text-align:start;line-height:125%;writing-mode:lr-tb;text-anchor:start;font-family:Times New Roman;-inkscape-font-specification:Times New Roman">1/2</tspan>
  </text>
  <path style="font-size:7.02919579px;font-family:Emmentaler" d="M 100.54522,29.275359 C 99.821021,29.31089 99.163933,29.434587 98.573962,29.646451 C 97.983985,29.858317 97.511128,30.134663 97.15539,30.475486 C 96.912381,30.731217 96.703587,31.05669 96.529007,31.451904 C 96.354428,31.847124 96.219324,32.29366 96.123702,32.79152 C 96.051325,33.249901 96.064483,33.659594 96.163178,34.020598 C 96.261873,34.381599 96.438208,34.659699 96.692181,34.854899 C 96.896152,35.022018 97.156705,35.140452 97.473844,35.2102 C 97.790981,35.279941 98.204182,35.308892 98.713451,35.297051 C 99.149897,35.287397 99.540288,35.254061 99.884625,35.197041 C 100.22896,35.140012 100.56145,35.054039 100.8821,34.939118 C 101.32381,34.782959 101.69841,34.600484 102.00591,34.39169 C 102.31339,34.182894 102.5564,33.937255 102.73493,33.654772 C 102.99328,33.264815 103.19243,32.802486 103.33236,32.26778 C 103.47228,31.733074 103.51878,31.254954 103.47185,30.833417 C 103.37008,29.987718 102.89985,29.489418 102.06117,29.338522 C 101.89405,29.296416 101.67034,29.270096 101.39005,29.259567 C 101.10975,29.249041 100.82814,29.254307 100.54522,29.275359 L 100.54522,29.275359 z M 101.93485,30.285992 C 102.05064,30.308802 102.15065,30.357929 102.23488,30.433374 C 102.31909,30.508825 102.38752,30.600061 102.44016,30.707089 C 102.46033,30.755779 102.47262,30.800521 102.47701,30.841313 C 102.48139,30.88211 102.48314,30.94264 102.48227,31.022911 C 102.48358,31.111957 102.48095,31.175999 102.47437,31.215038 C 102.46779,31.254076 102.44937,31.302329 102.41911,31.35979 C 102.34409,31.521211 102.17302,31.714215 101.9059,31.938797 C 101.63876,32.163385 101.22029,32.46166 100.6505,32.833629 C 99.872779,33.352984 99.275349,33.724951 98.858203,33.949539 C 98.441051,34.174124 98.133122,34.293433 97.934421,34.307472 C 97.762908,34.31712 97.605875,34.282029 97.463316,34.202196 C 97.320756,34.122363 97.211095,34.003051 97.134336,33.844266 C 97.114156,33.795573 97.101875,33.750831 97.097489,33.71004 C 97.093101,33.669243 97.091346,33.608712 97.092224,33.528442 C 97.090909,33.439395 97.093539,33.375354 97.100119,33.336315 C 97.1067,33.297276 97.125122,33.249026 97.15539,33.191563 C 97.237413,33.012157 97.457612,32.781432 97.815986,32.499383 C 98.174354,32.217338 98.747224,31.823436 99.534591,31.31768 C 100.11842,30.941325 100.5825,30.667613 100.92684,30.496541 C 101.27117,30.325471 101.52997,30.24125 101.70324,30.243883 C 101.72604,30.244324 101.75938,30.248709 101.80325,30.257042 C 101.84711,30.265378 101.89098,30.275029 101.93485,30.285992 L 101.93485,30.285992 z" id="text883"/>
  <text id="text889" fill="currentColor" style="font-size:11.98153591px;font-style:normal;font-variant:normal;font-weight:normal;font-stretch:normal;text-align:start;line-height:125%;writing-mode:lr-tb;text-anchor:start;font-family:Times New Roman;-inkscape-font-specification:Times New Roman" x="38.223186" y="63.868912" sodipodi:linespacing="125%">
    <tspan id="tspan891" style="font-size:11.98153591px;font-style:normal;font-variant:normal;font-weight:normal;font-stretch:normal;text-align:start;line-height:125%;writing-mode:lr-tb;text-anchor:start;font-family:Times New Roman;-inkscape-font-specification:Times New Roman">1</tspan>
  </text>
  <path style="font-size:7.02919579px;font-family:Emmentaler" d="M 40.880615,29.275359 C 39.75067,29.375372 38.794426,29.675404 38.011891,30.175454 C 37.22935,30.675509 36.767899,31.280834 36.627532,31.991435 C 36.542874,32.593693 36.727983,33.157787 37.182856,33.683722 C 37.637726,34.209652 38.301832,34.621098 39.175172,34.918063 C 39.718649,35.108432 40.30029,35.227741 40.920094,35.275997 C 41.539893,35.324243 42.158377,35.29617 42.775555,35.191775 C 43.869523,35.017192 44.755582,34.661014 45.433731,34.123241 C 46.111865,33.585465 46.461025,32.9661 46.481211,32.26515 C 46.461025,31.574286 46.111865,30.961065 45.433731,30.425481 C 44.755582,29.889898 43.869523,29.534597 42.775555,29.359577 C 42.476834,29.307382 42.163643,29.274921 41.835981,29.262197 C 41.50831,29.249482 41.189856,29.253867 40.880615,29.275359 L 40.880615,29.275359 z M 41.280658,30.054389 C 41.612268,30.129837 41.928092,30.25792 42.228128,30.43864 C 42.528154,30.619361 42.780812,30.842193 42.986104,31.107132 C 43.198401,31.396636 43.342276,31.728252 43.417729,32.101974 C 43.493168,32.475699 43.489658,32.85995 43.407201,33.254729 C 43.366401,33.472293 43.311133,33.653014 43.241394,33.796891 C 43.171644,33.940765 43.079527,34.068848 42.965049,34.181142 C 42.61062,34.535565 42.119338,34.605746 41.491206,34.39169 C 41.045981,34.250446 40.673134,34.032879 40.372667,33.73899 C 40.072194,33.445098 39.862523,33.101201 39.743654,32.707302 C 39.65987,32.427446 39.622147,32.129169 39.630483,31.81247 C 39.638816,31.495771 39.690576,31.197494 39.785763,30.917638 C 39.826114,30.804029 39.871734,30.704897 39.92262,30.620238 C 39.973499,30.53558 40.040173,30.452239 40.122642,30.370211 C 40.270899,30.222829 40.442846,30.122819 40.638486,30.070178 C 40.834115,30.017543 41.048174,30.01228 41.280658,30.054389 L 41.280658,30.054389 z" id="text895"/>
  <path style="font-size:7.02919579px;font-family:Emmentaler" d="M 389.8106,16.705263 L 389.8106,27.232696 L 390.08431,27.232696 L 390.33698,27.232696 L 390.33698,26.053623 L 390.33698,24.853495 L 390.9265,25.443032 C 391.2875,25.813665 391.58665,26.13563 391.82397,26.408926 C 392.06127,26.68218 392.28146,26.95677 392.48458,27.232696 C 392.75916,27.614733 392.98373,27.992843 393.15833,28.367027 C 393.3329,28.741168 393.4522,29.092961 393.51625,29.422402 C 393.60835,29.956647 393.5873,30.567238 393.45307,31.254175 C 393.31885,31.941065 393.08725,32.593765 392.75826,33.212279 C 392.70782,33.299981 392.67712,33.361392 392.66616,33.39651 C 392.65519,33.431574 392.65082,33.482456 392.65301,33.549158 C 392.66484,33.686424 392.70959,33.801348 392.78723,33.893929 C 392.86487,33.986457 392.96749,34.054009 393.09515,34.096585 C 393.28464,34.156211 393.45307,34.142175 393.60048,34.054473 C 393.67198,34.01497 393.73425,33.962332 393.78733,33.896562 C 393.84041,33.830739 393.89744,33.735992 393.95839,33.612321 C 394.21192,33.037235 394.40495,32.445065 394.5374,31.835816 C 394.66989,31.226516 394.73657,30.639612 394.73743,30.075105 C 394.73743,29.655299 394.67953,29.231569 394.56373,28.803915 C 394.44793,28.376216 394.27423,27.936698 394.04262,27.485356 C 393.99964,27.408573 393.96454,27.341021 393.93734,27.282701 C 393.91014,27.224341 393.89612,27.193636 393.89525,27.190586 C 393.89567,27.179162 393.90532,27.15986 393.92419,27.132686 C 393.94306,27.10547 393.96849,27.075642 394.00051,27.043202 C 394.19177,26.787453 394.34091,26.509352 394.44793,26.208903 C 394.55496,25.908412 394.60935,25.603994 394.61112,25.29565 C 394.60803,24.937698 394.55627,24.553447 394.45584,24.142894 C 394.35537,23.732308 394.22465,23.358583 394.06368,23.021722 L 394.00051,22.916449 L 394.08474,22.74801 C 394.19087,22.544024 394.28387,22.315051 394.3637,22.061093 C 394.44353,21.807103 394.50496,21.551815 394.54795,21.295224 C 394.57952,21.092994 394.5953,20.849985 394.5953,20.566199 C 394.5953,20.282383 394.57952,20.034111 394.54795,19.821382 C 394.50496,19.575727 394.44353,19.324825 394.3637,19.068672 C 394.28387,18.812491 394.19087,18.572115 394.08474,18.347542 L 394.00051,18.158048 L 394.08474,17.947499 C 394.20054,17.635174 394.28474,17.333389 394.3374,17.042139 C 394.39003,16.75087 394.41109,16.449086 394.40054,16.136781 C 394.38038,15.688917 394.30493,15.237114 394.17421,14.781373 C 394.04349,14.325613 393.85224,13.836967 393.60048,13.315429 C 393.47458,13.060129 393.32107,12.781154 393.13991,12.478497 C 392.95875,12.175826 392.68413,11.73894 392.31612,11.167831 C 391.98581,10.643208 391.72528,10.218603 391.53447,9.8940111 C 391.34366,9.5694134 391.18311,9.271136 391.05284,8.9991791 C 390.8322,8.5394805 390.66287,8.1008365 390.54489,7.68325 C 390.4269,7.2656605 390.35758,6.848074 390.33698,6.4304846 L 390.33698,6.1778269 L 390.06326,6.1778269 L 389.8106,6.1778269 L 389.8106,16.705263 L 389.8106,16.705263 z M 390.71595,11.125722 C 391.46821,12.074061 392.04285,12.914502 392.43982,13.647042 C 392.8368,14.379569 393.09033,15.062097 393.20044,15.694629 C 393.22147,15.852091 393.23201,16.047725 393.23201,16.281533 C 393.23201,16.515319 393.22147,16.663579 393.20044,16.726317 C 393.19209,16.749555 393.18244,16.755696 393.17148,16.744739 C 393.16051,16.733764 393.13505,16.692529 393.09515,16.621042 C 393.05918,16.572783 392.989,16.474525 392.88461,16.326275 C 392.78019,16.178003 392.66792,16.016582 392.54772,15.842011 C 392.12486,15.246325 391.79678,14.769082 391.56341,14.41028 C 391.33007,14.051463 391.13881,13.721603 390.98967,13.420701 C 390.76903,12.981174 390.60497,12.554814 390.4975,12.141618 C 390.39005,11.728411 390.33653,11.312577 390.33698,10.894119 C 390.33608,10.782259 390.33784,10.716463 390.34222,10.696729 C 390.34662,10.676984 390.3589,10.679616 390.37906,10.704625 C 390.39179,10.718218 390.42953,10.764712 390.49226,10.844114 C 390.55498,10.923504 390.62953,11.017373 390.71595,11.125722 L 390.71595,11.125722 z M 391.1581,16.263108 C 391.58665,16.722798 391.94547,17.150913 392.23452,17.547457 C 392.52361,17.943977 392.76135,18.329983 392.94778,18.705475 C 393.20041,19.214286 393.35833,19.686266 393.4215,20.121414 C 393.48467,20.556533 393.45307,20.996932 393.32676,21.442606 C 393.3149,21.486456 393.30175,21.525057 393.28728,21.558408 C 393.27281,21.591732 393.2649,21.609275 393.26359,21.611046 L 393.13727,21.442606 C 393.10085,21.383813 393.02102,21.264504 392.89776,21.084676 C 392.7745,20.904815 392.63677,20.701285 392.48458,20.474085 L 391.72659,19.421339 C 391.24497,18.701515 390.89229,18.035654 390.66856,17.42376 C 390.44487,16.811842 390.33434,16.214409 390.33698,15.631463 L 390.33698,15.378805 L 390.58964,15.652517 C 390.66728,15.730589 390.75938,15.827088 390.86596,15.942024 C 390.97257,16.056939 391.06995,16.163967 391.1581,16.263108 L 391.1581,16.263108 z M 390.71595,20.516194 C 391.28795,21.117119 391.74939,21.646999 392.1003,22.105835 C 392.45124,22.564641 392.7337,23.0103 392.94778,23.442819 C 393.08374,23.712568 393.19077,23.962593 393.26886,24.192899 C 393.34692,24.423169 393.40131,24.657405 393.43205,24.895607 C 393.45397,25.102627 393.45748,25.28861 393.44256,25.45356 C 393.42764,25.618471 393.38903,25.7834 393.32676,25.94835 C 393.28596,26.050972 393.257,26.114135 393.23989,26.137844 C 393.22279,26.16151 393.20964,26.16151 393.20044,26.137844 C 393.19691,26.123349 393.15656,26.062815 393.07937,25.956246 C 393.00215,25.849634 392.90917,25.720674 392.80038,25.569362 C 392.30515,24.9048 391.96389,24.438961 391.77659,24.171844 C 391.58929,23.904692 391.43227,23.654667 391.3055,23.421764 C 391.02256,22.970384 390.80411,22.530865 390.65014,22.103202 C 390.49618,21.675512 390.3988,21.251782 390.35803,20.832015 C 390.34794,20.710936 390.3418,20.568817 390.33961,20.405655 C 390.33739,20.242464 390.33653,20.152983 390.33698,20.137206 C 390.35013,20.139824 390.39224,20.17667 390.46329,20.247745 C 390.53434,20.318789 390.61857,20.408273 390.71595,20.516194 L 390.71595,20.516194 z" id="text841"/>
  <path d="M 389.8632,5.9672784 L 390.1264,5.9672784 C 390.24304,5.9672784 390.33695,6.0611837 390.33695,6.1778299 L 390.33695,31.087039 C 390.33695,31.203685 390.24304,31.29759 390.1264,31.29759 L 389.8632,31.29759 C 389.74656,31.29759 389.65265,31.203685 389.65265,31.087039 L 389.65265,6.1778299 C 389.65265,6.0611837 389.74656,5.9672784 389.8632,5.9672784 z" id="rect847"/>
  <text id="text851" fill="currentColor" style="font-size:11.98153591px;font-style:normal;font-variant:normal;font-weight:normal;font-stretch:normal;text-align:start;line-height:125%;writing-mode:lr-tb;text-anchor:start;font-family:Times New Roman;-inkscape-font-specification:Times New Roman" x="374.2923" y="63.868912" sodipodi:linespacing="125%">
    <tspan id="tspan853" style="font-size:11.98153591px;font-style:normal;font-variant:normal;font-weight:normal;font-stretch:normal;text-align:start;line-height:125%;writing-mode:lr-tb;text-anchor:start;font-family:Times New Roman;-inkscape-font-specification:Times New Roman">1/64</tspan>
  </text>
  <path style="font-size:7.02919579px;font-family:Emmentaler" d="M 387.17768,29.275359 C 386.41665,29.390723 385.72798,29.665313 385.11168,30.099128 C 384.49538,30.53295 384.03304,31.06546 383.7247,31.696668 C 383.60976,31.932219 383.52904,32.150664 383.48255,32.352002 C 383.43606,32.553336 383.41851,32.777047 383.42992,33.023123 C 383.42905,33.164368 383.43079,33.271396 383.43519,33.34421 C 383.43956,33.417025 383.45185,33.49247 383.47203,33.570551 C 383.61458,34.089902 383.89795,34.498718 384.32212,34.796996 C 384.74627,35.095273 385.27705,35.261957 385.91438,35.297051 C 386.84079,35.308014 387.70406,35.04395 388.50413,34.504862 C 389.30423,33.965768 389.85163,33.275344 390.14641,32.433587 C 390.19772,32.272169 390.23196,32.126539 390.24906,31.996701 C 390.26616,31.866863 390.27404,31.710705 390.27275,31.528229 C 390.27362,31.387425 390.27186,31.279519 390.26748,31.204509 C 390.26308,31.129501 390.2508,31.047916 390.23064,30.959747 C 390.17624,30.766745 390.09552,30.579007 389.98849,30.396528 C 389.88147,30.214055 389.75866,30.0579 389.62006,29.928059 C 389.27966,29.629785 388.84453,29.426254 388.31464,29.317468 C 388.16463,29.286765 387.97515,29.269218 387.74618,29.26483 C 387.51718,29.260448 387.32769,29.263955 387.17768,29.275359 L 387.17768,29.275359 z" id="text901"/>
  <path style="font-size:7.02919579px;font-family:Emmentaler" d="M 332.53657,16.705299 L 332.53657,24.600876 L 332.81029,24.600876 L 333.06295,24.600876 L 333.06295,23.506022 L 333.06295,22.432224 L 333.14715,22.495388 L 333.61035,22.93754 C 334.37798,23.673131 334.97981,24.365307 335.41582,25.014078 C 335.85183,25.662812 336.12728,26.276036 336.24222,26.853747 C 336.33522,27.362114 336.31767,27.940247 336.18959,28.58814 C 336.0615,29.235996 335.83341,29.872027 335.50529,30.496238 C 335.44476,30.61553 335.40791,30.697992 335.39476,30.743633 C 335.38161,30.789232 335.37634,30.840114 335.37898,30.896281 C 335.39081,31.033553 335.43556,31.148477 335.5132,31.241056 C 335.59084,31.333586 335.69349,31.401138 335.82113,31.443708 C 335.95053,31.485356 336.07597,31.491497 336.1975,31.46213 C 336.31899,31.432718 336.41811,31.370432 336.49488,31.275269 C 336.58657,31.162517 336.70324,30.92477 336.84492,30.562035 C 336.9866,30.199255 337.10854,29.819392 337.21074,29.422441 C 337.3476,28.8728 337.42656,28.345553 337.44762,27.840693 C 337.46868,27.335797 337.43183,26.86645 337.33709,26.432649 C 337.30285,26.267703 337.25022,26.081716 337.17917,25.874693 C 337.10809,25.667637 337.03441,25.481654 336.95808,25.31674 L 336.83177,25.064082 L 336.93703,24.853534 C 337.22084,24.163095 337.35329,23.480567 337.33445,22.805946 C 337.31558,22.131302 337.14802,21.438245 336.83177,20.726778 L 336.72648,20.495175 L 336.78965,20.368848 C 336.84315,20.249961 336.89404,20.113983 336.9423,19.960907 C 336.99055,19.80781 337.0309,19.656039 337.06337,19.505596 C 337.08353,19.400752 337.09581,19.305127 337.10021,19.218722 C 337.10459,19.1323 337.10635,18.989303 337.10549,18.789733 C 337.10635,18.566013 337.09932,18.371256 337.08443,18.205459 C 337.06951,18.039643 337.04141,17.855412 337.0002,17.652769 C 336.85283,16.996549 336.55805,16.266649 336.1159,15.463062 C 336.00492,15.271807 335.8742,15.05424 335.72375,14.810362 C 335.57329,14.566469 335.37415,14.243629 335.12632,13.841837 L 334.51574,12.894367 C 334.0354,12.135951 333.68011,11.452545 333.44983,10.84415 C 333.21954,10.235749 333.09056,9.6418268 333.06295,9.0623817 L 333.06295,8.8097241 L 332.78923,8.8097241 L 332.53657,8.8097241 L 332.53657,16.705299 L 332.53657,16.705299 z M 333.39981,13.673398 C 333.94329,14.350657 334.38807,14.95423 334.73416,15.484117 C 335.08025,16.013991 335.35133,16.512288 335.54741,16.979014 C 335.70751,17.357553 335.82418,17.737418 335.89745,18.118608 C 335.97068,18.499779 335.98737,18.821741 335.94744,19.084499 L 335.94744,19.16872 L 335.56846,18.642348 C 335.4588,18.498461 335.34123,18.338795 335.21579,18.16335 C 335.09034,17.987883 334.98332,17.838743 334.89471,17.715932 C 334.34464,16.954002 333.93409,16.298669 333.66301,15.749933 C 333.39193,15.201185 333.21295,14.65639 333.12609,14.11555 C 333.10329,13.960266 333.08574,13.786564 333.07346,13.594443 C 333.06118,13.402313 333.06468,13.302303 333.084,13.29441 C 333.08664,13.307566 333.11821,13.349675 333.17875,13.42074 C 333.23928,13.491797 333.31297,13.576015 333.39981,13.673398 L 333.39981,13.673398 z M 334.34728,19.189775 C 334.55168,19.423999 334.72188,19.629285 334.85787,19.805629 C 334.99383,19.981952 335.13246,20.176709 335.27369,20.389903 C 335.65225,20.957055 335.91105,21.496586 336.05009,22.008494 C 336.18914,22.520378 336.21106,23.012535 336.1159,23.484967 C 336.10536,23.549434 336.09484,23.604701 336.0843,23.650773 C 336.07379,23.696818 336.06324,23.725769 336.05273,23.737625 C 336.04922,23.758664 335.99306,23.695501 335.8843,23.548131 C 335.83823,23.480126 335.76191,23.373976 335.65533,23.229676 C 335.54873,23.08535 335.43556,22.931824 335.3158,22.769103 C 334.82453,22.118581 334.45957,21.614143 334.22096,21.255784 C 333.98232,20.897399 333.78582,20.545609 333.63141,20.200409 C 333.45115,19.827112 333.31165,19.452509 333.21295,19.076603 C 333.11426,18.700677 333.06426,18.352394 333.06295,18.031757 L 333.06295,17.842263 L 333.54721,18.347578 C 333.68976,18.490566 333.83626,18.641461 333.98672,18.800258 C 334.13718,18.959038 334.25736,19.088876 334.34728,19.189775 L 334.34728,19.189775 z" id="text907"/>
  <path d="M 332.58917,8.5991665 L 332.85237,8.5991665 C 332.96901,8.5991665 333.06292,8.6930748 333.06292,8.8097181 L 333.06292,31.087036 C 333.06292,31.203682 332.96901,31.297587 332.85237,31.297587 L 332.58917,31.297587 C 332.47253,31.297587 332.37862,31.203682 332.37862,31.087036 L 332.37862,8.8097181 C 332.37862,8.6930748 332.47253,8.5991665 332.58917,8.5991665 z" id="rect913"/>
  <text id="text917" fill="currentColor" style="font-size:11.98153591px;font-style:normal;font-variant:normal;font-weight:normal;font-stretch:normal;text-align:start;line-height:125%;writing-mode:lr-tb;text-anchor:start;font-family:Times New Roman;-inkscape-font-specification:Times New Roman" x="317.01828" y="63.868912" sodipodi:linespacing="125%">
    <tspan id="tspan919" style="font-size:11.98153591px;font-style:normal;font-variant:normal;font-weight:normal;font-stretch:normal;text-align:start;line-height:125%;writing-mode:lr-tb;text-anchor:start;font-family:Times New Roman;-inkscape-font-specification:Times New Roman">1/32</tspan>
  </text>
  <path style="font-size:7.02919579px;font-family:Emmentaler" d="M 329.90371,29.275359 C 329.14265,29.390723 328.45398,29.665313 327.83768,30.099128 C 327.22141,30.53295 326.75907,31.06546 326.4507,31.696668 C 326.33576,31.932219 326.25507,32.150664 326.20858,32.352002 C 326.16206,32.553336 326.14454,32.777047 326.15592,33.023123 C 326.15505,33.164368 326.15682,33.271396 326.16119,33.34421 C 326.16559,33.417025 326.17788,33.49247 326.19803,33.570551 C 326.34062,34.089902 326.62398,34.498718 327.04812,34.796996 C 327.4723,35.095273 328.00305,35.261957 328.64041,35.297051 C 329.56682,35.308014 330.43006,35.04395 331.23016,34.504862 C 332.03023,33.965768 332.57766,33.275344 332.87244,32.433587 C 332.92375,32.272169 332.95796,32.126539 332.97509,31.996701 C 332.99216,31.866863 333.00007,31.710705 332.99875,31.528229 C 332.99962,31.387425 332.99789,31.279519 332.99351,31.204509 C 332.98911,31.129501 332.97683,31.047916 332.95667,30.959747 C 332.90224,30.766745 332.82155,30.579007 332.71452,30.396528 C 332.6075,30.214055 332.48466,30.0579 332.34606,29.928059 C 332.00567,29.629785 331.57053,29.426254 331.04067,29.317468 C 330.89063,29.286765 330.70115,29.269218 330.47218,29.26483 C 330.24321,29.260448 330.05372,29.263955 329.90371,29.275359 L 329.90371,29.275359 z" id="text923"/>
  <path style="font-size:7.02919579px;font-family:Emmentaler" d="M 275.20402,19.337223 L 275.20402,24.600939 L 275.47774,24.600939 L 275.7304,24.600939 L 275.7304,23.821909 L 275.7304,23.021824 L 276.13043,23.442921 C 276.56949,23.88243 276.9441,24.287739 277.25424,24.65884 C 277.56435,25.02992 277.82842,25.382591 278.04643,25.716846 C 278.41312,26.276982 278.66929,26.80423 278.81492,27.298594 C 278.96056,27.792931 279.00618,28.304387 278.95178,28.832967 C 278.91099,29.283 278.82939,29.719889 278.70703,30.143634 C 278.58464,30.567346 278.41357,30.993706 278.1938,31.422717 C 278.12317,31.562188 278.08019,31.656935 278.06485,31.706958 C 278.04948,31.756945 278.04334,31.809582 278.04643,31.864868 C 278.05826,32.002147 278.10301,32.117071 278.18065,32.209643 C 278.25829,32.302176 278.36091,32.369728 278.48858,32.412296 C 278.67807,32.471934 278.8465,32.457894 278.9939,32.370187 C 279.08292,32.327619 279.15751,32.260067 279.21759,32.167534 C 279.27768,32.074961 279.35751,31.896871 279.45711,31.633265 C 279.6137,31.238908 279.74266,30.848516 279.84399,30.462088 C 279.94529,30.075627 280.02689,29.658918 280.08874,29.211955 C 280.1098,29.000077 280.12031,28.728995 280.12031,28.398712 C 280.12031,28.068399 280.1098,27.813108 280.08874,27.63284 C 280.04576,27.37973 279.98435,27.12795 279.90453,26.877497 C 279.82467,26.62702 279.73169,26.380503 279.62554,26.137946 L 279.49922,25.86423 L 279.60448,25.653682 C 279.8782,25.033431 280.00978,24.394767 279.99927,23.737691 C 279.98873,23.080593 279.83608,22.39982 279.54131,21.695366 C 279.39612,21.34927 279.18644,20.957123 278.9123,20.518926 C 278.63814,20.080716 278.22319,19.462229 277.66742,18.663465 C 277.17924,17.970845 276.80287,17.382187 276.53837,16.897489 C 276.27385,16.412784 276.08173,15.955719 275.962,15.526292 C 275.88787,15.308285 275.83083,15.075801 275.7909,14.828846 C 275.75101,14.581889 275.73082,14.3652 275.7304,14.178779 L 275.7304,14.073503 L 275.47774,14.073503 L 275.20402,14.073503 L 275.20402,19.337223 L 275.20402,19.337223 z M 276.40415,19.253002 C 277.09545,20.014919 277.63408,20.712362 278.0201,21.345328 C 278.40611,21.978283 278.66051,22.586241 278.78335,23.169209 C 278.81579,23.347287 278.83508,23.549062 278.84125,23.774537 C 278.84739,23.999987 278.83508,24.191237 278.80441,24.348282 C 278.79255,24.402222 278.7794,24.446964 278.76493,24.482505 C 278.75043,24.518024 278.74256,24.536449 278.74124,24.537776 C 278.73947,24.546097 278.72192,24.52943 278.68858,24.487768 C 278.65524,24.446087 278.61666,24.392571 278.57278,24.327227 C 278.5162,24.257471 278.42936,24.139036 278.31224,23.971924 C 278.19512,23.804793 278.07141,23.628458 277.94114,23.442921 C 277.65514,23.045502 277.43759,22.740207 277.28845,22.527034 C 277.13931,22.313844 277.00595,22.113824 276.88841,21.926972 C 276.60505,21.486567 276.37695,21.067222 276.20412,20.668941 C 276.03128,20.270647 275.90847,19.882889 275.83566,19.505659 C 275.80364,19.362657 275.7782,19.211764 275.75933,19.052982 C 275.74046,18.894188 275.73082,18.76435 275.7304,18.663465 L 275.7304,18.537138 L 275.89883,18.726632 L 276.40415,19.253002 L 276.40415,19.253002 z" id="text929"/>
  <text id="text939" fill="currentColor" style="font-size:11.98153591px;font-style:normal;font-variant:normal;font-weight:normal;font-stretch:normal;text-align:start;line-height:125%;writing-mode:lr-tb;text-anchor:start;font-family:Times New Roman;-inkscape-font-specification:Times New Roman" x="259.68573" y="63.868912" sodipodi:linespacing="125%">
    <tspan id="tspan941" style="font-size:11.98153591px;font-style:normal;font-variant:normal;font-weight:normal;font-stretch:normal;text-align:start;line-height:125%;writing-mode:lr-tb;text-anchor:start;font-family:Times New Roman;-inkscape-font-specification:Times New Roman">1/16</tspan>
  </text>
  <path d="M 275.25662,13.862955 L 275.51982,13.862955 C 275.63646,13.862955 275.73037,13.95686 275.73037,14.073506 L 275.73037,31.087039 C 275.73037,31.203685 275.63646,31.29759 275.51982,31.29759 L 275.25662,31.29759 C 275.13998,31.29759 275.04607,31.203685 275.04607,31.087039 L 275.04607,14.073506 C 275.04607,13.95686 275.13998,13.862955 275.25662,13.862955 z" id="rect935"/>
  <path style="font-size:7.02919579px;font-family:Emmentaler" d="M 272.57114,29.275359 C 271.8101,29.390723 271.12143,29.665313 270.50513,30.099128 C 269.88883,30.53295 269.42652,31.06546 269.11815,31.696668 C 269.00321,31.932219 268.92252,32.150664 268.87603,32.352002 C 268.82951,32.553336 268.81199,32.777047 268.82337,33.023123 C 268.8225,33.164368 268.82427,33.271396 268.82864,33.34421 C 268.83302,33.417025 268.8453,33.49247 268.86549,33.570551 C 269.00804,34.089902 269.2914,34.498718 269.71558,34.796996 C 270.13975,35.095273 270.67051,35.261957 271.30786,35.297051 C 272.23428,35.308014 273.09752,35.04395 273.89761,34.504862 C 274.69768,33.965768 275.24512,33.275344 275.53989,32.433587 C 275.5912,32.272169 275.62541,32.126539 275.64251,31.996701 C 275.65962,31.866863 275.66752,31.710705 275.66621,31.528229 C 275.66708,31.387425 275.66534,31.279519 275.66094,31.204509 C 275.65656,31.129501 275.64428,31.047916 275.62409,30.959747 C 275.5697,30.766745 275.489,30.579007 275.38197,30.396528 C 275.27495,30.214055 275.15211,30.0579 275.01351,29.928059 C 274.67312,29.629785 274.23798,29.426254 273.70812,29.317468 C 273.55809,29.286765 273.3686,29.269218 273.13963,29.26483 C 272.91066,29.260448 272.72115,29.263955 272.57114,29.275359 L 272.57114,29.275359 z" id="text945"/>
  <path style="font-size:7.02919579px;font-family:Emmentaler" d="M 216.28464,16.705362 L 216.28464,19.337223 L 216.5373,19.337223 L 216.81102,19.337223 L 217.06365,19.63199 C 218.10017,20.79965 218.85902,21.833094 219.34023,22.73232 C 219.82141,23.631528 220.05915,24.464949 220.05346,25.232585 C 220.05256,25.808073 219.98064,26.409891 219.83764,27.038041 C 219.69464,27.666164 219.48584,28.27851 219.21125,28.875077 C 219.1709,28.974197 219.14634,29.044379 219.13756,29.085625 C 219.12879,29.126845 219.12528,29.175972 219.12705,29.23301 C 219.13888,29.370288 219.18363,29.485215 219.26127,29.577782 C 219.33891,29.670321 219.44154,29.737873 219.5692,29.780437 C 219.73982,29.831742 219.89336,29.829109 220.02977,29.772542 C 220.16618,29.715941 220.27233,29.613298 220.34821,29.464613 C 220.39691,29.350112 220.46796,29.152722 220.56139,28.872444 C 220.65482,28.592139 220.73117,28.347374 220.79039,28.138158 C 220.99126,27.413943 221.12111,26.709483 221.17988,26.024774 C 221.23868,25.340041 221.22112,24.725065 221.12725,24.179842 C 221.08339,23.924543 221.01845,23.65609 220.93249,23.374491 C 220.84652,23.092874 220.75001,22.813899 220.64298,22.537563 C 220.48552,22.167339 220.28462,21.765542 220.04028,21.33217 C 219.79598,20.898782 219.44243,20.318022 218.97965,19.58988 C 218.46204,18.757331 218.06552,18.080066 217.79006,17.558085 C 217.51457,17.036097 217.30753,16.548326 217.16894,16.094771 C 217.06191,15.789475 216.97594,15.463125 216.911,15.11572 C 216.84609,14.768313 216.81276,14.463017 216.81102,14.199834 L 216.81102,14.073503 L 216.55836,14.073503 L 216.28464,14.073503 L 216.28464,16.705362 L 216.28464,16.705362 z" id="text951"/>
  <path d="M 216.33724,13.862955 L 216.60044,13.862955 C 216.71708,13.862955 216.81099,13.95686 216.81099,14.073506 L 216.81099,31.087039 C 216.81099,31.203685 216.71708,31.29759 216.60044,31.29759 L 216.33724,31.29759 C 216.2206,31.29759 216.12669,31.203685 216.12669,31.087039 L 216.12669,14.073506 C 216.12669,13.95686 216.2206,13.862955 216.33724,13.862955 z" id="rect957"/>
  <text id="text961" fill="currentColor" style="font-size:11.98153591px;font-style:normal;font-variant:normal;font-weight:normal;font-stretch:normal;text-align:start;line-height:125%;writing-mode:lr-tb;text-anchor:start;font-family:Times New Roman;-inkscape-font-specification:Times New Roman" x="204.36079" y="63.868912" sodipodi:linespacing="125%">
    <tspan id="tspan963" style="font-size:11.98153591px;font-style:normal;font-variant:normal;font-weight:normal;font-stretch:normal;text-align:start;line-height:125%;writing-mode:lr-tb;text-anchor:start;font-family:Times New Roman;-inkscape-font-specification:Times New Roman">1/8</tspan>
  </text>
  <path style="font-size:7.02919579px;font-family:Emmentaler" d="M 213.65173,29.275359 C 212.89066,29.390723 212.20199,29.665313 211.58572,30.099128 C 210.96942,30.53295 210.50708,31.06546 210.19871,31.696668 C 210.08381,31.932219 210.00308,32.150664 209.95659,32.352002 C 209.9101,32.553336 209.89255,32.777047 209.90396,33.023123 C 209.90306,33.164368 209.90483,33.271396 209.9092,33.34421 C 209.91361,33.417025 209.92589,33.49247 209.94608,33.570551 C 210.08863,34.089902 210.37199,34.498718 210.79617,34.796996 C 211.22031,35.095273 211.75107,35.261957 212.38842,35.297051 C 213.31484,35.308014 214.17808,35.04395 214.97817,34.504862 C 215.77827,33.965768 216.32568,33.275344 216.62045,32.433587 C 216.67176,32.272169 216.706,32.126539 216.7231,31.996701 C 216.74021,31.866863 216.74809,31.710705 216.7468,31.528229 C 216.74767,31.387425 216.7459,31.279519 216.74153,31.204509 C 216.73712,31.129501 216.72484,31.047916 216.70468,30.959747 C 216.65029,30.766745 216.56956,30.579007 216.46254,30.396528 C 216.35551,30.214055 216.2327,30.0579 216.09407,29.928059 C 215.75368,29.629785 215.31857,29.426254 214.78869,29.317468 C 214.63868,29.286765 214.44916,29.269218 214.22019,29.26483 C 213.99122,29.260448 213.80174,29.263955 213.65173,29.275359 L 213.65173,29.275359 z" id="text967"/>
</svg>