<?xml version="1.0" encoding="UTF-8" standalone="no"?>
<!-- Created with Inkscape (http://www.inkscape.org/) -->

<svg
   xmlns:dc="http://purl.org/dc/elements/1.1/"
   xmlns:cc="http://creativecommons.org/ns#"
   xmlns:rdf="http://www.w3.org/1999/02/22-rdf-syntax-ns#"
   xmlns:svg="http://www.w3.org/2000/svg"
   xmlns="http://www.w3.org/2000/svg"
   xmlns:sodipodi="http://sodipodi.sourceforge.net/DTD/sodipodi-0.dtd"
   xmlns:inkscape="http://www.inkscape.org/namespaces/inkscape"
   width="2.0906105mm"
   height="4.9888287mm"
   viewBox="0 0 7.407675 17.676952"
   id="svg3451"
   version="1.1"
   inkscape:version="0.91 r13725"
   sodipodi:docname="flag.svg">
  <defs
     id="defs3453" />
  <sodipodi:namedview
     id="base"
     pagecolor="#ffffff"
     bordercolor="#666666"
     borderopacity="1.0"
     inkscape:pageopacity="0.0"
     inkscape:pageshadow="2"
     inkscape:zoom="0.35"
     inkscape:cx="-4.15331"
     inkscape:cy="-119.73295"
     inkscape:document-units="px"
     inkscape:current-layer="layer1"
     showgrid="false"
     fit-margin-top="0"
     fit-margin-left="0"
     fit-margin-right="0"
     fit-margin-bottom="0"
     inkscape:window-width="1440"
     inkscape:window-height="851"
     inkscape:window-x="0"
     inkscape:window-y="1"
     inkscape:window-maximized="1" />
  <metadata
     id="metadata3456">
    <rdf:RDF>
      <cc:Work
         rdf:about="">
        <dc:format>image/svg+xml</dc:format>
        <dc:type
           rdf:resource="http://purl.org/dc/dcmitype/StillImage" />
        <dc:title></dc:title>
      </cc:Work>
    </rdf:RDF>
  </metadata>
  <g
     inkscape:label="Layer 1"
     inkscape:groupmode="layer"
     id="layer1"
     transform="translate(-379.15331,-394.9523)">
    <g
       transform="translate(338.03893,353.59467)"
       id="g31">
      <path
         style="fill:#000000"
         inkscape:connector-curvature="0"
         id="path33"
         d="m 48.521389,52.443489 c 0.02964,2.109383 -0.932148,4.12896 -2.379509,5.629089 -0.295528,0.367462 -1.0998,1.053852 -1.245121,0.951771 -0.187187,-0.131401 0.47662,-0.733128 0.809361,-1.053188 1.468319,-1.524719 2.330109,-3.69228 2.0364,-5.81496 -0.37875,-1.935791 -1.957088,-3.33445 -3.506039,-4.40712 -0.979401,-0.671249 -2.0242,-1.249062 -3.122101,-1.702461 l 0,-4.688988 0.522282,0.0017 c 0.418388,1.926769 2.155968,3.433121 3.4548,4.791019 0.906651,0.97002 1.97504,1.827221 2.5853,3.032391 0.547508,0.99474 0.849457,2.123741 0.844627,3.260738 l 0,0 z" />
    </g>
  </g>
</svg>
