<?xml version="1.0" encoding="UTF-8" standalone="no"?>
<!-- Created with Inkscape (http://www.inkscape.org/) -->

<svg
   xmlns:dc="http://purl.org/dc/elements/1.1/"
   xmlns:cc="http://creativecommons.org/ns#"
   xmlns:rdf="http://www.w3.org/1999/02/22-rdf-syntax-ns#"
   xmlns:svg="http://www.w3.org/2000/svg"
   xmlns="http://www.w3.org/2000/svg"
   xmlns:sodipodi="http://sodipodi.sourceforge.net/DTD/sodipodi-0.dtd"
   xmlns:inkscape="http://www.inkscape.org/namespaces/inkscape"
   width="3.2903211mm"
   height="7.2377605mm"
   viewBox="0 0 11.658618 25.645608"
   id="svg3598"
   version="1.1"
   inkscape:version="0.91 r13725"
   sodipodi:docname="rest-16.svg">
  <defs
     id="defs3600" />
  <sodipodi:namedview
     id="base"
     pagecolor="#ffffff"
     bordercolor="#666666"
     borderopacity="1.0"
     inkscape:pageopacity="0.0"
     inkscape:pageshadow="2"
     inkscape:zoom="0.35"
     inkscape:cx="49.400739"
     inkscape:cy="-107.1772"
     inkscape:document-units="px"
     inkscape:current-layer="layer1"
     showgrid="false"
     fit-margin-top="0"
     fit-margin-left="0"
     fit-margin-right="0"
     fit-margin-bottom="0"
     inkscape:window-width="1440"
     inkscape:window-height="851"
     inkscape:window-x="0"
     inkscape:window-y="1"
     inkscape:window-maximized="1" />
  <metadata
     id="metadata3603">
    <rdf:RDF>
      <cc:Work
         rdf:about="">
        <dc:format>image/svg+xml</dc:format>
        <dc:type
           rdf:resource="http://purl.org/dc/dcmitype/StillImage" />
        <dc:title></dc:title>
      </cc:Work>
    </rdf:RDF>
  </metadata>
  <g
     inkscape:label="Layer 1"
     inkscape:groupmode="layer"
     id="layer1"
     transform="translate(-325.59926,-399.5394)">
    <g
       id="g88"
       style="fill:#000000;fill-rule:evenodd;stroke:#000000;stroke-width:0;stroke-linecap:butt;stroke-linejoin:round;stroke-miterlimit:10"
       transform="matrix(1.8,0,0,1.8,-649.10073,264.88015)">
      <path
         inkscape:connector-curvature="0"
         id="path90"
         style="fill:#000000;stroke:#000000"
         d="m 544.191,74.847 c -0.519,0.098 -0.918,0.457 -1.093,0.953 -0.043,0.16 -0.043,0.199 -0.043,0.418 0,0.301 0.019,0.461 0.16,0.699 0.199,0.399 0.617,0.719 1.098,0.836 0.496,0.141 1.292,0.039 2.25,-0.277 0.14,-0.059 0.257,-0.102 0.257,-0.082 0,0.023 -0.894,2.93 -0.933,3.031 -0.102,0.258 -0.442,0.735 -0.739,1.035 -0.277,0.278 -0.418,0.34 -0.636,0.239 -0.18,-0.098 -0.239,-0.2 -0.36,-0.739 -0.101,-0.398 -0.179,-0.617 -0.339,-0.773 -0.418,-0.461 -1.137,-0.52 -1.692,-0.16 -0.262,0.179 -0.461,0.457 -0.578,0.758 -0.043,0.156 -0.043,0.199 -0.043,0.417 0,0.297 0.023,0.458 0.16,0.696 0.199,0.398 0.617,0.719 1.098,0.836 0.219,0.062 0.777,0.062 1.156,0 0.316,-0.059 0.695,-0.157 1.074,-0.278 0.16,-0.058 0.301,-0.097 0.301,-0.078 0,0 -1.953,6.356 -1.992,6.453 0,0.02 0.156,0.141 0.316,0.18 0.16,0.063 0.321,0.063 0.481,0 0.156,-0.039 0.316,-0.137 0.316,-0.199 0.02,-0.02 0.817,-3.027 1.793,-6.676 l 1.774,-6.633 -0.039,-0.058 c -0.079,-0.121 -0.239,-0.141 -0.379,-0.082 -0.079,0.039 -0.079,0.039 -0.317,0.398 -0.199,0.32 -0.48,0.656 -0.64,0.816 -0.219,0.18 -0.336,0.219 -0.536,0.141 -0.179,-0.098 -0.242,-0.199 -0.359,-0.738 -0.121,-0.535 -0.262,-0.778 -0.559,-0.977 -0.277,-0.179 -0.636,-0.238 -0.957,-0.156 z" />
    </g>
  </g>
</svg>
