<?xml version="1.0" encoding="UTF-8" standalone="no"?>
<!-- Created with Inkscape (http://www.inkscape.org/) -->

<svg
   xmlns:dc="http://purl.org/dc/elements/1.1/"
   xmlns:cc="http://creativecommons.org/ns#"
   xmlns:rdf="http://www.w3.org/1999/02/22-rdf-syntax-ns#"
   xmlns:svg="http://www.w3.org/2000/svg"
   xmlns="http://www.w3.org/2000/svg"
   xmlns:sodipodi="http://sodipodi.sourceforge.net/DTD/sodipodi-0.dtd"
   xmlns:inkscape="http://www.inkscape.org/namespaces/inkscape"
   width="3.8327317mm"
   height="9.7642164mm"
   viewBox="0 0 13.580545 34.597617"
   id="svg3643"
   version="1.1"
   inkscape:version="0.91 r13725"
   sodipodi:docname="rest-32.svg">
  <defs
     id="defs3645" />
  <sodipodi:namedview
     id="base"
     pagecolor="#ffffff"
     bordercolor="#666666"
     borderopacity="1.0"
     inkscape:pageopacity="0.0"
     inkscape:pageshadow="2"
     inkscape:zoom="0.35"
     inkscape:cx="87.504559"
     inkscape:cy="-42.701196"
     inkscape:document-units="px"
     inkscape:current-layer="layer1"
     showgrid="false"
     fit-margin-top="0"
     fit-margin-left="0"
     fit-margin-right="0"
     fit-margin-bottom="0"
     inkscape:window-width="1440"
     inkscape:window-height="851"
     inkscape:window-x="0"
     inkscape:window-y="1"
     inkscape:window-maximized="1" />
  <metadata
     id="metadata3648">
    <rdf:RDF>
      <cc:Work
         rdf:about="">
        <dc:format>image/svg+xml</dc:format>
        <dc:type
           rdf:resource="http://purl.org/dc/dcmitype/StillImage" />
        <dc:title></dc:title>
      </cc:Work>
    </rdf:RDF>
  </metadata>
  <g
     inkscape:label="Layer 1"
     inkscape:groupmode="layer"
     id="layer1"
     transform="translate(-287.49544,-455.06339)">
    <g
       id="g92"
       style="fill:#000000;fill-rule:evenodd;stroke:#000000;stroke-width:0;stroke-linecap:butt;stroke-linejoin:round;stroke-miterlimit:10"
       transform="matrix(1.8,0,0,1.8,-702.32815,329.371)">
      <path
         inkscape:connector-curvature="0"
         id="path94"
         style="fill:#000000;stroke:#000000"
         d="m 553.789,69.863 c -0.516,0.101 -0.918,0.461 -1.094,0.957 -0.043,0.16 -0.043,0.199 -0.043,0.418 0,0.218 0,0.3 0.043,0.418 0.137,0.441 0.418,0.777 0.856,0.976 0.297,0.16 0.437,0.18 0.855,0.18 0.52,0 0.957,-0.078 1.657,-0.297 0.179,-0.063 0.316,-0.102 0.316,-0.102 0.019,0 -0.16,0.7 -0.399,1.536 -0.296,1.175 -0.417,1.554 -0.457,1.671 -0.16,0.301 -0.5,0.758 -0.718,0.957 -0.2,0.18 -0.317,0.219 -0.516,0.141 -0.18,-0.098 -0.242,-0.199 -0.359,-0.738 -0.102,-0.399 -0.18,-0.617 -0.34,-0.778 -0.418,-0.457 -1.137,-0.515 -1.692,-0.156 -0.261,0.176 -0.46,0.457 -0.578,0.754 -0.043,0.16 -0.043,0.199 -0.043,0.418 0,0.301 0.024,0.461 0.161,0.699 0.199,0.399 0.617,0.719 1.097,0.836 0.219,0.063 0.778,0.063 1.156,0 0.317,-0.058 0.696,-0.16 1.075,-0.277 0.179,-0.059 0.32,-0.102 0.32,-0.102 0,0.02 -0.797,3.051 -0.84,3.11 -0.156,0.34 -0.476,0.758 -0.715,0.996 -0.258,0.258 -0.398,0.301 -0.617,0.219 -0.18,-0.098 -0.242,-0.2 -0.359,-0.739 -0.102,-0.398 -0.18,-0.617 -0.34,-0.773 -0.418,-0.461 -1.137,-0.52 -1.692,-0.16 -0.261,0.179 -0.46,0.457 -0.578,0.758 -0.043,0.156 -0.043,0.199 -0.043,0.417 0,0.219 0,0.297 0.043,0.418 0.137,0.438 0.418,0.778 0.856,0.977 0.32,0.16 0.437,0.18 0.875,0.18 0.32,0 0.422,0 0.679,-0.043 0.36,-0.059 0.739,-0.176 1.157,-0.297 l 0.258,-0.102 0,0.063 c -0.02,0.078 -1.696,6.375 -1.715,6.414 -0.02,0.082 0.34,0.238 0.558,0.238 0.219,0 0.539,-0.137 0.559,-0.238 0.019,-0.02 0.976,-4.145 2.172,-9.164 2.133,-9.086 2.133,-9.106 2.094,-9.168 -0.063,-0.078 -0.161,-0.117 -0.282,-0.117 -0.14,0.019 -0.199,0.078 -0.34,0.316 -0.277,0.481 -0.597,0.898 -0.773,1.039 -0.121,0.078 -0.223,0.078 -0.379,0.02 -0.18,-0.102 -0.242,-0.2 -0.359,-0.739 -0.121,-0.539 -0.262,-0.777 -0.559,-0.976 -0.277,-0.18 -0.637,-0.238 -0.957,-0.16 z" />
    </g>
  </g>
</svg>
