<?xml version="1.0" encoding="UTF-8" standalone="no"?>
<!-- Created with Inkscape (http://www.inkscape.org/) -->

<svg
   xmlns:dc="http://purl.org/dc/elements/1.1/"
   xmlns:cc="http://creativecommons.org/ns#"
   xmlns:rdf="http://www.w3.org/1999/02/22-rdf-syntax-ns#"
   xmlns:svg="http://www.w3.org/2000/svg"
   xmlns="http://www.w3.org/2000/svg"
   xmlns:sodipodi="http://sodipodi.sourceforge.net/DTD/sodipodi-0.dtd"
   xmlns:inkscape="http://www.inkscape.org/namespaces/inkscape"
   width="28.347464mm"
   height="70.303001mm"
   viewBox="0 0 100.44377 249.10512"
   id="svg3727"
   version="1.1"
   inkscape:version="0.91 r13725"
   sodipodi:docname="note-64-up.svg">
  <defs
     id="defs3729" />
  <sodipodi:namedview
     id="base"
     pagecolor="#ffffff"
     bordercolor="#666666"
     borderopacity="1.0"
     inkscape:pageopacity="0.0"
     inkscape:pageshadow="2"
     inkscape:zoom="0.35"
     inkscape:cx="25.221884"
     inkscape:cy="90.266849"
     inkscape:document-units="px"
     inkscape:current-layer="layer1"
     showgrid="false"
     fit-margin-top="0"
     fit-margin-left="0"
     fit-margin-right="0"
     fit-margin-bottom="0"
     inkscape:window-width="1440"
     inkscape:window-height="851"
     inkscape:window-x="0"
     inkscape:window-y="1"
     inkscape:window-maximized="1" />
  <metadata
     id="metadata3732">
    <rdf:RDF>
      <cc:Work
         rdf:about="">
        <dc:format>image/svg+xml</dc:format>
        <dc:type
           rdf:resource="http://purl.org/dc/dcmitype/StillImage" />
        <dc:title></dc:title>
      </cc:Work>
    </rdf:RDF>
  </metadata>
  <g
     inkscape:label="Layer 1"
     inkscape:groupmode="layer"
     id="layer1"
     transform="translate(-349.77812,-373.52393)">
    <path
       inkscape:connector-curvature="0"
       style="fill:#131516;fill-rule:evenodd;stroke:#131516;stroke-width:0.27168819;image-rendering:optimizeQuality;shape-rendering:geometricPrecision;text-rendering:geometricPrecision"
       id="path31"
       d="m 399.54877,580.50597 0,-178.85471 0,-27.99149 4.33177,0 c 0,7.08876 1.62442,12.90517 4.96347,17.35836 3.33908,4.36231 8.66353,10.08784 16.15389,17.08571 7.49032,6.99788 13.17577,13.7231 16.96608,20.17569 3.79028,6.54346 5.68544,14.81368 5.68544,24.81064 0,4.81672 -0.63171,10.54225 -1.80491,17.08571 2.16588,4.18055 3.24882,9.54256 3.24882,15.99514 0,6.17994 -1.08294,11.99635 -3.24882,17.44924 2.34637,5.45289 3.6098,11.2693 3.6098,17.26747 0,5.9073 -1.26343,11.26931 -3.6098,15.99514 2.7976,4.27143 4.24153,10.36049 4.24153,18.17629 0,11.08754 -2.70736,22.35684 -8.12206,33.98967 l -3.24883,0 c 4.96348,-14.17751 7.4001,-25.17416 7.4001,-32.89909 0,-5.90729 -1.08294,-10.63313 -3.24882,-14.35927 -2.25614,-3.72614 -4.78299,-6.63434 -7.58058,-8.63374 -2.79763,-1.99939 -7.67084,-5.08936 -14.61972,-9.26991 -6.94887,-4.18054 -12.36357,-7.90668 -16.42462,-11.17842 l -0.36097,79.61216 c 0,5.99818 -1.80491,11.2693 -5.32445,15.90426 -3.60982,4.63495 -8.12207,8.08845 -13.62703,10.54225 -5.50493,2.4538 -10.91966,3.72614 -16.24411,3.72614 -5.41471,0 -9.83672,-1.27234 -13.44652,-3.90791 -3.51956,-2.63556 -5.32447,-6.3617 -5.32447,-11.36018 0,-5.27112 1.89514,-10.2696 5.68544,-14.81368 3.70005,-4.63495 8.5733,-8.27021 14.34897,-10.99665 5.77571,-2.72645 11.46113,-3.99879 16.96609,-3.99879 5.32447,0 9.47572,0.9997 12.63431,3.08997 z m 4.69274,-139.77568 c 0,6.27082 1.26345,11.45106 3.70005,15.63161 2.43662,4.18055 6.67816,8.90638 12.63432,14.26839 5.95618,5.36201 10.64892,9.72432 13.988,13.26869 3.33908,3.54438 6.40738,8.27021 9.20501,14.26839 0.54145,-2.27204 0.72194,-4.72583 0.72194,-7.45228 0,-6.99787 -1.89514,-13.63222 -5.86593,-19.90304 -3.88054,-6.3617 -8.84401,-11.99635 -14.98069,-16.90395 -6.04641,-4.99848 -12.54406,-9.36079 -19.4027,-13.17781 z m -0.36097,33.44438 c 0,6.08905 1.53417,11.81459 4.51225,16.99483 2.9781,5.18024 6.94887,10.2696 11.82212,15.26809 4.96347,4.90759 9.65623,9.63343 14.16848,13.99574 4.42199,4.45319 7.49033,8.45197 9.0245,11.90547 0.63171,-2.99909 0.90245,-5.63465 0.90245,-7.8158 0,-10.72402 -4.06102,-20.44833 -12.27331,-29.26384 -8.21233,-8.72461 -17.59783,-15.72249 -28.15649,-21.08449 z m 0.36097,-67.25228 c 0,5.99817 1.1732,11.08753 3.42933,15.1772 2.25611,4.08966 6.40739,8.90638 12.27332,14.45015 5.95619,5.54377 10.46844,9.99696 13.71726,13.35958 3.1586,3.36261 6.40742,8.27021 9.74647,14.63191 0.361,-2.36292 0.54148,-4.54407 0.54148,-6.72523 0,-8.45197 -2.07565,-15.81337 -6.22693,-22.17507 -4.15125,-6.45259 -8.93424,-11.63283 -14.16846,-15.63161 -5.23421,-3.99879 -11.64163,-8.3611 -19.31247,-13.08693 z"
       class="fil1 str1" />
  </g>
</svg>
