<?xml version="1.0" encoding="UTF-8" standalone="no"?>
<!-- Created with Inkscape (http://www.inkscape.org/) -->

<svg
   xmlns:dc="http://purl.org/dc/elements/1.1/"
   xmlns:cc="http://creativecommons.org/ns#"
   xmlns:rdf="http://www.w3.org/1999/02/22-rdf-syntax-ns#"
   xmlns:svg="http://www.w3.org/2000/svg"
   xmlns="http://www.w3.org/2000/svg"
   xmlns:sodipodi="http://sodipodi.sourceforge.net/DTD/sodipodi-0.dtd"
   xmlns:inkscape="http://www.inkscape.org/namespaces/inkscape"
   width="28.551214mm"
   height="58.709755mm"
   viewBox="0 0 101.16572 208.02669"
   id="svg3685"
   version="1.1"
   inkscape:version="0.91 r13725"
   sodipodi:docname="note-32-up.svg">
  <defs
     id="defs3687" />
  <sodipodi:namedview
     id="base"
     pagecolor="#ffffff"
     bordercolor="#666666"
     borderopacity="1.0"
     inkscape:pageopacity="0.0"
     inkscape:pageshadow="2"
     inkscape:zoom="0.35"
     inkscape:cx="71.297144"
     inkscape:cy="49.727629"
     inkscape:document-units="px"
     inkscape:current-layer="layer1"
     showgrid="false"
     inkscape:window-width="1440"
     inkscape:window-height="851"
     inkscape:window-x="0"
     inkscape:window-y="1"
     inkscape:window-maximized="1"
     fit-margin-top="0"
     fit-margin-left="0"
     fit-margin-right="0"
     fit-margin-bottom="0" />
  <metadata
     id="metadata3690">
    <rdf:RDF>
      <cc:Work
         rdf:about="">
        <dc:format>image/svg+xml</dc:format>
        <dc:type
           rdf:resource="http://purl.org/dc/dcmitype/StillImage" />
        <dc:title></dc:title>
      </cc:Work>
    </rdf:RDF>
  </metadata>
  <g
     inkscape:label="Layer 1"
     inkscape:groupmode="layer"
     id="layer1"
     transform="translate(-303.70286,-374.06315)">
    <path
       inkscape:connector-curvature="0"
       style="fill:#131516;fill-rule:evenodd;stroke:#131516;stroke-width:0.27168819;image-rendering:optimizeQuality;shape-rendering:geometricPrecision;text-rendering:geometricPrecision"
       id="path29"
       d="m 353.11254,541.05734 0,-166.85835 4.42199,0 c 0.54149,6.08906 1.71466,10.90577 3.51957,14.26839 1.80491,3.36261 4.42202,6.81611 8.12207,10.2696 3.60979,3.4535 8.75375,8.27021 15.34165,14.54103 11.82212,11.45107 17.68806,24.90152 17.68806,40.53313 0,5.36201 -0.72197,10.63313 -2.16589,15.99514 1.44392,4.54407 2.16589,9.45167 2.16589,14.54103 0,3.99878 -0.54149,8.63374 -1.80491,13.81398 2.88785,3.72614 4.33176,9.63344 4.33176,17.81277 0,5.63465 -0.72195,11.45106 -2.34637,17.26748 -1.53417,5.81641 -3.79031,10.99665 -6.85861,15.63161 l -2.88786,0 c 5.41471,-11.36019 8.12207,-21.17538 8.12207,-29.4456 0,-5.27112 -0.99271,-10.08784 -3.06833,-14.35927 -2.07566,-4.36231 -4.96351,-8.27021 -8.66356,-11.81459 -3.70005,-3.45349 -7.67081,-6.72523 -12.00257,-9.72431 -4.33177,-2.90821 -10.82944,-7.17964 -19.49297,-12.63252 l 0,81.97507 c 0,5.36201 -1.80488,10.2696 -5.4147,14.72279 -3.60979,4.4532 -8.12204,7.99757 -13.627,10.54225 -5.50496,2.54469 -10.91967,3.81702 -16.24411,3.81702 -5.41473,0 -9.83673,-1.36322 -13.26603,-3.99878 -3.42934,-2.72644 -5.14399,-6.72523 -5.14399,-11.99635 0,-5.18024 1.89516,-9.99696 5.59519,-14.45015 3.60982,-4.4532 8.30255,-7.99757 13.89777,-10.72401 5.59519,-2.63557 10.82941,-3.90791 15.79288,-3.90791 5.86593,0 10.55867,1.36322 13.988,4.18055 z m 5.05371,-133.7775 c 0,5.362 1.26345,9.99696 3.60982,13.7231 2.34637,3.81702 6.49764,8.45197 12.36358,13.90486 5.86593,5.45289 10.46843,9.90608 13.80748,13.54134 3.33908,3.63526 6.49768,8.54285 9.3855,14.63191 0.361,-2.18115 0.54148,-4.27143 0.54148,-6.17994 0,-7.45228 -1.98539,-14.1775 -6.04641,-20.26656 -4.06105,-6.17994 -8.5733,-11.17842 -13.71726,-15.17721 -5.05374,-3.99878 -11.73187,-8.72461 -19.94419,-14.1775 z m -0.36097,31.62674 c 0.36097,5.72554 1.98539,10.8149 4.87324,15.35897 2.88783,4.54407 6.49765,8.90638 10.91964,13.17781 4.42202,4.18055 9.02453,8.45197 13.71726,12.90516 4.69276,4.4532 8.03181,8.54286 10.01721,12.17812 0.18048,-0.99969 0.18048,-2.4538 0.18048,-4.36231 0,-18.35805 -13.17577,-34.80759 -39.70783,-49.25775 z"
       class="fil1 str1" />
  </g>
</svg>
